<svg width="52" height="16" viewBox="0 0 52 16" fill="none" xmlns="http://www.w3.org/2000/svg">
<path d="M20.8214 0.266357L18.1787 15.7676H22.4053L25.0502 0.266357H20.8214Z" fill="#FDFDFD"/>
<path d="M14.6343 0.283717L10.4947 10.8551L10.0533 9.25893C9.23692 7.33567 6.91923 4.57356 4.19824 2.83285L7.9835 15.76L12.4558 15.7524L19.1121 0.280457L14.6343 0.283717Z" fill="#FDFDFD"/>
<path d="M8.44888 1.39302C8.2032 0.448778 7.49115 0.167351 6.60735 0.133667H0.0543546L0 0.442258C5.09955 1.67879 8.47388 4.65822 9.87406 8.2407L8.44888 1.39302Z" fill="#FDFDFD"/>
<path d="M33.6161 3.23804C34.9989 3.21631 36.0012 3.51838 36.7795 3.83131L37.1611 4.0106L37.7329 0.650873C36.8959 0.336849 35.5837 7.62939e-06 33.9466 7.62939e-06C29.77 7.62939e-06 26.8261 2.10255 26.8033 5.11566C26.7761 7.34208 28.9003 8.58514 30.5048 9.32727C32.1518 10.0879 32.704 10.5714 32.6964 11.2505C32.6834 12.2882 31.3832 12.7642 30.1689 12.7642C28.4763 12.7642 27.5773 12.5305 26.1891 11.9525L25.6444 11.7047L25.0498 15.1742C26.0391 15.6077 27.8643 15.9804 29.7591 16C34.202 16 37.0894 13.9225 37.1198 10.7029C37.1383 8.94153 36.011 7.59743 33.5683 6.49454C32.0898 5.77522 31.1854 5.29712 31.1941 4.57128C31.1941 3.92693 31.9615 3.23804 33.6161 3.23804Z" fill="#FDFDFD"/>
<path d="M48.58 0.283539H45.3144C44.3001 0.283539 43.5457 0.559532 43.1 1.57006L36.8242 15.7761H41.2628C41.2628 15.7761 41.9868 13.8659 42.151 13.4475C42.6369 13.4475 46.9494 13.4541 47.5636 13.4541C47.6897 13.9952 48.0789 15.7761 48.0789 15.7761H52L48.58 0.283539ZM43.3674 10.2747C43.7153 9.3848 45.0513 5.94249 45.0513 5.94249C45.0285 5.98486 45.3959 5.04605 45.6144 4.46255L45.8993 5.79906C45.8993 5.79906 46.7091 9.49998 46.8787 10.2747H43.3674Z" fill="#FDFDFD"/>
</svg>
